<svg width="200" height="200" viewBox="0 0 200 200" fill="none" xmlns="http://www.w3.org/2000/svg">
<path fill-rule="evenodd" clip-rule="evenodd" d="M113.043 26.087H173.913L173.913 86.9565C188.32 86.9565 200 98.6361 200 113.043C200 127.451 188.32 139.13 173.913 139.13L173.913 200L113.043 200C113.043 185.593 101.364 173.913 86.9565 173.913C72.5491 173.913 60.8696 185.593 60.8696 200L0 200V139.13C14.4074 139.13 26.087 127.451 26.087 113.043C26.087 98.636 14.4074 86.9565 0 86.9565V26.087H60.8696C60.8696 11.6795 72.5491 0 86.9565 0C101.364 0 113.043 11.6795 113.043 26.087Z" fill="url(#paint0_linear_1_76)"/>
<g filter="url(#filter0_d_1_76)">
<path d="M21 92C21 75.4315 34.4315 62 51 62H151V162H21V92Z" fill="#D9D9D9"/>
</g>
<g filter="url(#filter1_d_1_76)">
<rect x="44" y="83" width="60" height="60" rx="15" fill="#D9D9D9"/>
<rect x="45" y="84" width="58" height="58" rx="14" stroke="#EEEEEE" stroke-width="2"/>
</g>
<circle cx="61" cy="100" r="11.5" fill="black" stroke="#EEEEEE" stroke-width="3"/>
<circle cx="61" cy="126" r="11.5" fill="black" stroke="#EEEEEE" stroke-width="3"/>
<circle cx="87" cy="113" r="11.5" fill="black" stroke="#EEEEEE" stroke-width="3"/>
<g filter="url(#filter2_d_1_76)">
<ellipse cx="144" cy="83.5" rx="23" ry="24.5" fill="#FFDD28"/>
</g>
<path fill-rule="evenodd" clip-rule="evenodd" d="M158.006 50.4363C154.078 48.2538 149.488 47 144.583 47C138.969 47 133.767 48.6428 129.499 51.4409L134.307 58.6416L133.501 59.2334L128.674 52.0044C122.389 56.4748 118.333 63.53 118.333 71.4681H170.833C170.833 62.8666 166.072 55.3018 158.872 50.9388L153.333 59.2328L152.527 58.641L158.006 50.4363Z" fill="#FFA800"/>
<path d="M109 123C109 114.716 115.716 108 124 108H164C172.284 108 179 114.716 179 123V162H109V123Z" fill="#11D4FF"/>
<rect x="109" y="135" width="70" height="27" fill="#FFDD28"/>
<rect x="119" y="133" width="49" height="29" fill="#FFA800"/>
<rect x="119" y="108" width="10" height="27" fill="#FFA800"/>
<rect x="159" y="108" width="9" height="27" fill="#FFA800"/>
<path d="M143 131V161" stroke="black"/>
<line x1="119" y1="64.5" x2="170" y2="64.5" stroke="white"/>
<defs>
<filter id="filter0_d_1_76" x="13" y="58" width="138" height="108" filterUnits="userSpaceOnUse" color-interpolation-filters="sRGB">
<feFlood flood-opacity="0" result="BackgroundImageFix"/>
<feColorMatrix in="SourceAlpha" type="matrix" values="0 0 0 0 0 0 0 0 0 0 0 0 0 0 0 0 0 0 127 0" result="hardAlpha"/>
<feOffset dx="-4"/>
<feGaussianBlur stdDeviation="2"/>
<feComposite in2="hardAlpha" operator="out"/>
<feColorMatrix type="matrix" values="0 0 0 0 0 0 0 0 0 0 0 0 0 0 0 0 0 0 0.25 0"/>
<feBlend mode="normal" in2="BackgroundImageFix" result="effect1_dropShadow_1_76"/>
<feBlend mode="normal" in="SourceGraphic" in2="effect1_dropShadow_1_76" result="shape"/>
</filter>
<filter id="filter1_d_1_76" x="42" y="81" width="64" height="64" filterUnits="userSpaceOnUse" color-interpolation-filters="sRGB">
<feFlood flood-opacity="0" result="BackgroundImageFix"/>
<feColorMatrix in="SourceAlpha" type="matrix" values="0 0 0 0 0 0 0 0 0 0 0 0 0 0 0 0 0 0 127 0" result="hardAlpha"/>
<feOffset/>
<feGaussianBlur stdDeviation="1"/>
<feComposite in2="hardAlpha" operator="out"/>
<feColorMatrix type="matrix" values="0 0 0 0 0 0 0 0 0 0 0 0 0 0 0 0 0 0 0.6 0"/>
<feBlend mode="normal" in2="BackgroundImageFix" result="effect1_dropShadow_1_76"/>
<feBlend mode="normal" in="SourceGraphic" in2="effect1_dropShadow_1_76" result="shape"/>
</filter>
<filter id="filter2_d_1_76" x="117" y="56" width="54" height="57" filterUnits="userSpaceOnUse" color-interpolation-filters="sRGB">
<feFlood flood-opacity="0" result="BackgroundImageFix"/>
<feColorMatrix in="SourceAlpha" type="matrix" values="0 0 0 0 0 0 0 0 0 0 0 0 0 0 0 0 0 0 127 0" result="hardAlpha"/>
<feOffset dy="1"/>
<feGaussianBlur stdDeviation="2"/>
<feComposite in2="hardAlpha" operator="out"/>
<feColorMatrix type="matrix" values="0 0 0 0 1 0 0 0 0 0.866667 0 0 0 0 0.156863 0 0 0 0.2 0"/>
<feBlend mode="normal" in2="BackgroundImageFix" result="effect1_dropShadow_1_76"/>
<feBlend mode="normal" in="SourceGraphic" in2="effect1_dropShadow_1_76" result="shape"/>
</filter>
<linearGradient id="paint0_linear_1_76" x1="84.7826" y1="13.0435" x2="84.7826" y2="186.957" gradientUnits="userSpaceOnUse">
<stop stop-color="#FD0C0C"/>
<stop offset="1" stop-color="#FFA800"/>
</linearGradient>
</defs>
</svg>
